<mxfile host="65bd71144e">
    <diagram id="-ptRLh_MCLknRN1rh_g1" name="第 1 页">
        <mxGraphModel dx="956" dy="388" grid="1" gridSize="10" guides="1" tooltips="1" connect="1" arrows="1" fold="1" page="1" pageScale="1" pageWidth="850" pageHeight="1100" math="0" shadow="0">
            <root>
                <mxCell id="0"/>
                <mxCell id="1" parent="0"/>
                <mxCell id="2" value="" style="rounded=0;whiteSpace=wrap;html=1;" vertex="1" parent="1">
                    <mxGeometry x="300" y="210" width="30" height="30" as="geometry"/>
                </mxCell>
                <mxCell id="3" value="" style="rounded=0;whiteSpace=wrap;html=1;" vertex="1" parent="1">
                    <mxGeometry x="330" y="210" width="30" height="30" as="geometry"/>
                </mxCell>
                <mxCell id="4" value="" style="rounded=0;whiteSpace=wrap;html=1;" vertex="1" parent="1">
                    <mxGeometry x="450" y="210" width="30" height="30" as="geometry"/>
                </mxCell>
                <mxCell id="5" value="" style="rounded=0;whiteSpace=wrap;html=1;" vertex="1" parent="1">
                    <mxGeometry x="420" y="210" width="30" height="30" as="geometry"/>
                </mxCell>
                <mxCell id="6" value="" style="rounded=0;whiteSpace=wrap;html=1;" vertex="1" parent="1">
                    <mxGeometry x="390" y="210" width="30" height="30" as="geometry"/>
                </mxCell>
                <mxCell id="7" value="" style="rounded=0;whiteSpace=wrap;html=1;" vertex="1" parent="1">
                    <mxGeometry x="360" y="210" width="30" height="30" as="geometry"/>
                </mxCell>
                <mxCell id="8" value="" style="rounded=0;whiteSpace=wrap;html=1;" vertex="1" parent="1">
                    <mxGeometry x="480" y="210" width="30" height="30" as="geometry"/>
                </mxCell>
                <mxCell id="9" value="" style="rounded=0;whiteSpace=wrap;html=1;" vertex="1" parent="1">
                    <mxGeometry x="240" y="210" width="30" height="30" as="geometry"/>
                </mxCell>
                <mxCell id="10" value="" style="rounded=0;whiteSpace=wrap;html=1;" vertex="1" parent="1">
                    <mxGeometry x="270" y="210" width="30" height="30" as="geometry"/>
                </mxCell>
                <mxCell id="11" value="" style="endArrow=classic;html=1;entryX=0.5;entryY=1;entryDx=0;entryDy=0;" edge="1" parent="1" target="10">
                    <mxGeometry width="50" height="50" relative="1" as="geometry">
                        <mxPoint x="285" y="280" as="sourcePoint"/>
                        <mxPoint x="320" y="270" as="targetPoint"/>
                    </mxGeometry>
                </mxCell>
                <mxCell id="12" value="" style="endArrow=classic;html=1;entryX=0.5;entryY=1;entryDx=0;entryDy=0;" edge="1" parent="1">
                    <mxGeometry width="50" height="50" relative="1" as="geometry">
                        <mxPoint x="464.8" y="280" as="sourcePoint"/>
                        <mxPoint x="464.8" y="240" as="targetPoint"/>
                    </mxGeometry>
                </mxCell>
                <mxCell id="13" value="leftEnd" style="text;html=1;strokeColor=none;fillColor=none;align=center;verticalAlign=middle;whiteSpace=wrap;rounded=0;" vertex="1" parent="1">
                    <mxGeometry x="265" y="280" width="40" height="20" as="geometry"/>
                </mxCell>
                <mxCell id="14" value="rightFront" style="text;html=1;strokeColor=none;fillColor=none;align=center;verticalAlign=middle;whiteSpace=wrap;rounded=0;" vertex="1" parent="1">
                    <mxGeometry x="437.5" y="280" width="55" height="20" as="geometry"/>
                </mxCell>
                <mxCell id="16" value="1. 将元素加入到堆中，按照值其次索引的优先顺序&lt;br&gt;2. 判断堆顶的元素属于左区间还是右区间，堆顶元素出堆&lt;br&gt;&lt;span style=&quot;&quot;&gt;&lt;/span&gt;&amp;nbsp; &amp;nbsp; 左区间：leftEnd 右移，更新leftEnd，新元素入堆&lt;br&gt;&lt;span style=&quot;&quot;&gt;&lt;/span&gt;&amp;nbsp; &amp;nbsp; 右区间：&lt;span style=&quot;text-align: center;&quot;&gt;rightFront&lt;/span&gt;&amp;nbsp;左移，更新&lt;span style=&quot;text-align: center;&quot;&gt;rightFront，&lt;/span&gt;新元素入堆" style="text;html=1;strokeColor=none;fillColor=none;align=left;verticalAlign=middle;whiteSpace=wrap;rounded=0;" vertex="1" parent="1">
                    <mxGeometry x="225" y="330" width="345" height="60" as="geometry"/>
                </mxCell>
            </root>
        </mxGraphModel>
    </diagram>
</mxfile>